<?xml version="1.0" standalone="no"?>
<!DOCTYPE svg PUBLIC "-//W3C//DTD SVG 20010904//EN"
 "http://www.w3.org/TR/2001/REC-SVG-20010904/DTD/svg10.dtd">
<svg version="1.0" xmlns="http://www.w3.org/2000/svg"
 width="960.000000pt" height="365.000000pt" viewBox="0 0 960.000000 365.000000"
 preserveAspectRatio="xMidYMid meet">

<g transform="translate(0.000000,365.000000) scale(0.100000,-0.100000)"
fill="#000000" stroke="none">
<path d="M0 3291 l0 -359 33 -27 c29 -26 200 -186 452 -425 55 -52 160 -151
233 -219 83 -79 129 -128 123 -134 -6 -6 -132 106 -343 305 -183 173 -370 350
-416 393 l-83 78 3 -45 c3 -45 3 -45 283 -308 154 -145 314 -296 355 -335 41
-40 92 -87 113 -105 27 -23 35 -36 27 -44 -7 -7 -27 6 -68 45 -54 52 -339 321
-482 455 -36 33 -101 95 -145 137 l-80 76 -3 -39 c-3 -43 -10 -36 378 -400
298 -279 351 -333 342 -342 -7 -7 -106 83 -567 519 l-150 143 -3 -40 c-3 -37
1 -42 80 -117 45 -43 125 -119 178 -169 52 -50 166 -157 252 -239 87 -81 155
-152 152 -156 -3 -5 -13 -4 -23 3 -16 11 -425 395 -588 552 l-53 50 0 -41 c0
-41 2 -43 257 -286 142 -135 280 -264 306 -287 32 -29 45 -46 38 -53 -7 -7
-52 29 -136 109 -69 65 -201 190 -293 276 l-167 157 -3 -37 c-4 -41 -7 -38
363 -387 99 -93 180 -173 180 -177 0 -5 -3 -9 -7 -10 -4 -2 -103 87 -220 197
-117 110 -237 222 -265 249 l-53 49 0 -41 c0 -40 3 -43 245 -272 135 -128 242
-236 239 -242 -7 -11 -19 -1 -139 112 -138 131 -266 251 -308 289 l-37 35 0
-41 c0 -40 3 -44 215 -244 132 -126 211 -207 205 -213 -6 -6 -73 51 -177 149
-92 88 -185 175 -205 194 l-38 35 0 -41 c0 -41 3 -44 183 -213 100 -95 184
-176 185 -181 12 -32 -41 8 -158 119 -74 71 -152 143 -172 161 l-38 33 0 -39
c0 -43 -19 -22 224 -252 48 -46 84 -87 79 -92 -4 -4 -73 52 -153 127 l-145
136 -3 -39 c-4 -37 -1 -41 124 -159 81 -77 123 -123 116 -128 -7 -4 -56 35
-124 101 l-113 107 -3 -39 c-4 -39 -1 -42 92 -130 53 -49 96 -93 96 -97 0 -21
-29 -1 -104 69 l-81 76 -3 -39 c-3 -37 0 -43 63 -102 36 -34 63 -67 59 -73 -3
-6 -30 13 -62 43 l-57 53 -3 -39 c-3 -33 2 -44 33 -76 21 -22 32 -40 27 -44
-6 -3 -13 -2 -17 4 -3 5 -15 14 -25 20 -19 10 -19 -4 -20 -660 l0 -670 2698 0
2699 0 11 25 c7 14 12 34 12 44 0 28 55 106 96 137 57 42 59 45 109 128 44 71
53 106 30 108 -5 0 -20 4 -31 8 -13 5 -26 4 -33 -3 -8 -8 -11 0 -11 34 -1 40
-23 91 -32 72 -2 -4 -4 -65 -3 -135 0 -71 -4 -128 -8 -128 -5 0 -5 -5 -2 -11
4 -5 -15 -34 -42 -64 -26 -29 -54 -60 -61 -69 -7 -9 -19 -16 -26 -16 -26 0
-105 72 -120 111 -26 64 -31 166 -12 231 24 84 23 91 -19 84 -31 -6 -35 -4
-35 14 0 17 6 20 40 20 27 0 43 5 47 15 3 9 15 15 26 13 11 -2 22 2 24 8 7 20
-146 10 -187 -12 -32 -17 -33 -19 -12 -22 12 -2 22 -6 22 -10 0 -18 -31 -104
-51 -143 -21 -42 -92 -119 -109 -119 -13 0 -70 -50 -70 -61 0 -6 9 -5 21 1 12
7 39 9 66 5 30 -4 43 -2 38 5 -3 5 2 10 14 10 32 0 51 11 51 30 0 18 17 36 26
28 2 -3 -1 -19 -7 -35 -8 -25 -21 -35 -70 -53 -57 -22 -66 -22 -147 -11 -48 6
-122 16 -164 21 -79 10 -248 62 -283 86 -11 8 -26 14 -33 14 -8 0 -31 14 -52
30 -37 29 -66 42 -42 18 18 -18 14 -27 -8 -21 -17 5 -20 12 -16 42 6 50 17 81
27 81 5 0 9 -4 9 -9 0 -5 19 -28 41 -52 35 -37 40 -40 34 -19 -4 14 -18 41
-31 60 -56 82 -10 72 66 -15 53 -61 84 -82 95 -65 3 5 20 1 38 -9 32 -18 203
-48 214 -38 7 7 -68 40 -126 57 -24 6 -53 20 -65 31 -34 32 -122 80 -137 74
-8 -3 -30 9 -49 26 -25 22 -40 29 -57 24 -18 -4 -23 -1 -23 15 0 11 5 20 10
20 6 0 10 6 10 13 0 6 4 18 9 26 8 12 12 12 24 2 21 -16 31 2 17 30 -7 11 -9
23 -6 26 8 8 26 -7 26 -23 0 -8 5 -14 10 -14 13 0 1 52 -13 62 -11 7 20 88 34
88 4 0 16 28 27 63 17 53 19 80 15 187 -3 69 -10 128 -15 131 -15 10 -37 120
-38 191 0 37 -4 70 -10 73 -15 9 -12 -46 11 -233 11 -92 21 -176 22 -187 2
-17 -5 -20 -43 -23 -41 -3 -45 -1 -46 20 -1 13 -7 75 -13 138 -7 63 -14 152
-18 197 l-6 83 31 6 c28 6 32 11 36 48 3 22 8 63 11 89 5 35 15 57 36 80 20
21 32 28 36 20 6 -15 37 -17 62 -4 10 6 36 12 59 15 40 5 42 4 43 -22 1 -19 3
-21 6 -9 4 14 12 18 29 14 13 -2 29 2 34 8 9 10 -1 16 -40 24 -66 14 -91 28
-84 46 5 12 11 10 34 -7 16 -11 35 -18 43 -15 8 3 23 0 33 -8 21 -15 44 -3 44
21 0 20 86 104 105 104 22 0 40 -21 40 -45 0 -14 -13 -24 -50 -38 -32 -12 -51
-15 -53 -8 -6 19 -22 12 -22 -9 0 -25 6 -25 71 4 30 13 73 27 96 31 24 4 45
11 49 16 10 17 118 -16 111 -35 -3 -6 9 -12 26 -13 l30 -2 -28 29 c-16 16 -37
32 -47 36 -29 9 -21 21 12 16 27 -4 70 -46 70 -68 0 -4 10 -18 22 -31 12 -13
17 -23 12 -23 -6 0 -19 -7 -30 -15 -18 -14 -17 -14 9 -5 44 16 85 -16 127 -97
12 -24 24 -43 26 -43 3 0 22 18 43 40 33 35 44 40 82 40 41 0 49 5 97 53 41
41 58 68 71 113 18 56 36 73 53 49 5 -6 8 -3 8 8 0 16 -12 22 -34 18 -5 -1 -6
20 -2 46 4 26 9 118 12 203 6 219 21 343 50 419 14 36 27 67 30 70 6 6 -3 -93
-11 -119 -2 -8 -7 -40 -10 -70 -3 -30 -9 -93 -14 -140 -14 -128 -2 -113 14 18
12 91 16 50 6 -49 -6 -52 -12 -143 -14 -202 -3 -59 -7 -110 -10 -113 -3 -4 -5
37 -4 89 1 52 -1 93 -5 90 -5 -2 -8 -24 -8 -48 0 -24 -5 -66 -11 -93 -9 -36
-9 -54 -1 -68 11 -18 11 -18 12 1 1 19 2 19 10 -1 10 -26 -10 -181 -21 -162
-4 6 -5 26 -3 43 3 16 -10 -13 -29 -65 -37 -102 -67 -170 -93 -210 -9 -14 8 0
37 30 58 61 57 53 -7 -30 -57 -75 -94 -144 -84 -160 6 -9 13 -7 29 9 11 11 21
27 21 34 0 6 12 30 26 52 15 22 23 31 19 20 -4 -11 -9 -32 -10 -46 -2 -14 -12
-44 -24 -67 -12 -23 -17 -42 -12 -42 5 0 11 5 13 10 2 6 3 -15 2 -47 -1 -40
-9 -76 -27 -115 -21 -46 -25 -63 -17 -84 13 -33 13 -37 -2 -28 -7 4 -8 3 -4
-4 3 -6 7 -27 8 -47 1 -19 5 -35 9 -35 7 0 23 30 21 41 0 3 15 23 35 45 20 21
33 31 30 22 -7 -19 8 -25 18 -8 12 20 24 -1 15 -25 -5 -14 -7 -26 -5 -26 33
-9 53 9 89 80 14 28 45 70 69 93 61 60 98 162 103 282 5 133 7 135 61 79 33
-35 36 -37 13 -9 l-32 39 22 17 c13 10 19 20 14 23 -12 7 -5 87 7 87 10 0 21
-40 19 -66 -1 -11 -2 -27 -1 -37 1 -16 3 -17 16 -3 17 16 21 41 5 31 -6 -3
-10 4 -10 17 0 18 2 20 10 8 19 -30 10 34 -15 105 -13 39 -25 84 -25 100 0 24
-13 42 -58 86 -73 69 -122 162 -122 228 0 63 10 93 26 87 9 -3 14 2 14 14 0
25 5 25 32 0 12 -11 29 -20 37 -20 14 0 14 2 1 10 -15 9 -16 9 35 25 25 7 17
32 -12 41 -21 5 -24 8 -10 11 9 3 17 11 17 18 0 15 -51 28 -112 29 -36 1 -38
3 -38 33 0 48 28 124 58 155 14 15 46 34 71 42 145 44 135 44 227 -1 29 -13
80 -52 115 -87 56 -55 68 -73 92 -144 20 -58 26 -86 19 -99 -5 -10 -6 -27 -1
-38 7 -19 8 -19 8 2 1 23 32 83 43 83 4 0 2 -15 -3 -32 -5 -18 -9 -34 -9 -36
0 -2 -3 -1 -7 1 -5 3 -9 -5 -9 -16 -3 -34 -33 -189 -43 -219 -6 -17 -6 -30 0
-33 5 -4 8 -18 7 -33 -3 -54 2 -97 11 -84 6 10 10 6 15 -15 4 -15 18 -45 32
-65 13 -21 24 -48 25 -60 1 -21 2 -20 11 5 5 15 13 27 17 25 3 -2 33 -17 65
-33 43 -22 60 -26 63 -17 6 16 56 42 82 42 11 0 33 8 50 18 28 15 33 15 41 2
15 -23 6 -35 -26 -33 -47 2 -132 -17 -138 -32 -5 -15 13 -29 91 -69 63 -31 73
-32 73 -6 0 29 40 35 106 13 l58 -18 -1 -43 c0 -26 3 -40 8 -35 13 13 21 48
26 126 4 56 2 71 -12 87 -22 25 -96 28 -115 5 -16 -20 -46 -19 -54 1 -10 27 1
32 78 28 70 -3 114 -15 118 -32 0 -4 2 -71 3 -149 2 -152 4 -158 61 -218 20
-21 29 -41 30 -65 1 -19 4 -111 8 -205 5 -114 3 -190 -4 -230 -12 -64 -16 -45
55 -300 7 -27 12 -52 10 -54 -2 -2 -18 2 -36 8 -18 6 -35 11 -39 11 -4 0 -10
-31 -13 -69 -3 -39 -17 -94 -31 -130 -15 -33 -33 -82 -42 -108 -16 -49 -34
-77 -34 -55 0 6 8 34 19 61 12 32 15 54 9 65 -6 10 -3 26 7 45 8 17 15 39 15
51 0 11 5 20 10 20 6 0 8 11 4 26 -4 16 -3 25 2 21 5 -3 10 29 11 73 1 64 -2
78 -13 73 -11 -4 -14 8 -14 60 0 61 -1 65 -21 60 -13 -4 -16 -8 -10 -13 8 -4
5 -13 -9 -25 -11 -10 -20 -28 -20 -41 0 -13 -5 -26 -10 -29 -6 -4 -8 -15 -5
-26 4 -10 2 -19 -3 -19 -6 0 -12 -24 -15 -52 -9 -87 -12 -103 -20 -113 -4 -5
-23 -28 -43 -49 -33 -37 -35 -38 -53 -22 -39 36 -33 92 23 219 l17 39 -30 -7
c-26 -6 -29 -4 -24 15 3 11 24 36 46 55 43 37 36 46 -13 20 -26 -14 -30 -14
-30 -1 0 9 6 21 14 28 11 10 10 14 -8 23 -14 7 -20 18 -18 34 2 15 0 21 -7 17
-16 -10 -14 11 9 106 11 46 20 99 20 118 0 29 6 39 35 58 35 22 40 37 29 80
-7 26 -38 29 -60 7 -9 -8 -32 -15 -52 -15 -31 -1 -34 -2 -19 -11 10 -6 30 -8
45 -4 71 19 88 13 52 -20 -25 -22 -98 -30 -130 -13 -37 20 -70 75 -70 119 0
36 -14 58 -28 45 -13 -13 0 -92 21 -129 12 -22 40 -50 64 -64 43 -25 51 -37
33 -48 -6 -3 -10 1 -10 9 0 9 -5 16 -10 16 -6 0 -4 -13 5 -30 18 -35 11 -58
-11 -39 -11 9 -14 8 -14 -4 0 -9 5 -19 10 -22 27 -17 -22 -151 -112 -302 -73
-123 -179 -238 -250 -272 -100 -48 -259 -46 -420 5 -178 56 -292 128 -355 223
-32 48 -37 64 -37 109 1 29 -2 49 -5 43 -4 -5 -21 -9 -39 -9 -18 1 -28 4 -22
8 7 5 5 11 -6 21 -12 9 -15 10 -10 2 10 -18 -9 -16 -24 3 -20 23 -51 38 -44
21 3 -8 16 -20 30 -27 13 -7 24 -17 24 -21 0 -13 -33 -16 -60 -6 -44 16 -92
26 -106 20 -17 -6 -19 -33 -3 -33 8 0 7 -5 -1 -15 -11 -14 -10 -14 13 -6 21 8
37 6 73 -9 26 -11 54 -19 62 -18 9 2 25 -11 36 -29 14 -21 27 -30 38 -27 11 3
22 -4 32 -24 27 -52 148 -156 227 -194 194 -94 417 -129 561 -88 59 17 156 88
212 156 28 34 79 108 113 164 60 100 61 101 56 58 -3 -23 -9 -58 -14 -77 -4
-19 -14 -121 -20 -227 -11 -170 -10 -201 4 -275 10 -46 17 -103 17 -126 l0
-43 1450 0 1450 0 0 419 c0 306 -3 420 -11 423 -9 3 -9 9 0 25 6 12 11 34 11
49 l0 28 -30 -29 c-44 -42 -50 -21 -7 23 29 29 37 46 37 72 l-1 35 -53 -59
c-33 -36 -56 -54 -60 -47 -4 7 19 40 53 78 48 51 61 73 61 97 0 30 -2 29 -78
-52 -42 -45 -80 -82 -84 -82 -22 1 1 33 77 110 74 74 85 89 85 120 l-1 35
-103 -110 c-57 -60 -107 -107 -111 -103 -8 8 28 52 141 169 61 63 74 82 74
109 0 32 -4 29 -126 -99 -69 -72 -130 -131 -136 -131 -21 0 -10 13 179 212 70
73 83 91 83 120 l-1 33 -41 -45 c-181 -195 -267 -280 -273 -269 -5 6 22 42 66
87 41 42 76 79 79 82 3 3 42 44 88 92 68 73 82 93 82 120 l0 33 -43 -45 c-23
-25 -103 -109 -176 -187 -74 -79 -138 -143 -143 -143 -27 0 16 49 265 306 88
91 98 105 95 134 -3 31 -8 27 -201 -179 -180 -192 -217 -226 -217 -203 0 4 95
108 210 230 184 195 210 227 210 255 0 36 29 64 -315 -303 -115 -122 -155
-157 -155 -133 0 7 13 20 298 320 153 161 172 185 172 215 l-1 33 -62 -65
c-34 -37 -147 -157 -252 -268 -104 -111 -193 -202 -198 -202 -5 0 -7 6 -5 14
3 13 206 231 420 451 86 88 98 104 98 135 l0 35 -88 -90 c-75 -78 -186 -196
-411 -438 -52 -55 -71 -68 -71 -47 0 11 155 176 498 531 66 68 73 80 70 109
-3 34 -6 31 -223 -200 -319 -341 -383 -405 -391 -398 -8 8 58 80 391 428 208
218 224 238 225 272 l0 37 -77 -82 c-42 -45 -114 -120 -158 -167 -45 -47 -115
-121 -155 -165 -41 -44 -110 -116 -153 -161 -43 -45 -85 -91 -93 -103 -17 -24
-37 -28 -32 -7 2 8 75 90 164 183 89 92 238 249 332 348 l171 180 1 738 0 737
-4800 0 -4800 0 0 -359z m8780 29 c0 -11 7 -20 15 -20 9 0 15 9 15 21 0 20 4
21 48 14 26 -3 71 -17 101 -31 29 -13 60 -24 68 -24 12 0 14 -33 11 -217 -3
-214 -4 -219 -29 -268 -36 -67 -84 -115 -151 -150 -51 -26 -59 -28 -94 -17
-94 29 -191 139 -213 244 -6 27 -11 130 -11 228 l0 180 23 0 c13 0 28 5 34 11
14 14 122 48 156 48 21 1 27 -4 27 -19z m-5979 -251 c19 -7 35 -13 37 -15 7
-5 -22 -84 -30 -84 -5 0 -28 5 -51 11 -69 17 -127 -17 -100 -60 5 -8 45 -34
88 -56 93 -47 119 -83 112 -154 -6 -55 -32 -90 -87 -118 -49 -25 -128 -30
-192 -13 -47 14 -51 21 -38 71 9 31 15 39 27 34 39 -14 106 -25 128 -19 13 3
31 14 40 24 27 29 2 65 -63 91 -130 53 -169 140 -107 236 35 53 154 79 236 52z
m831 0 c37 -8 63 -22 85 -44 30 -30 33 -39 33 -90 0 -52 -3 -60 -35 -92 -36
-36 -36 -36 -16 -57 10 -12 29 -55 41 -96 12 -41 24 -83 26 -92 5 -16 -2 -18
-51 -18 -62 0 -65 3 -87 103 -12 59 -38 87 -78 87 l-30 0 0 -95 0 -95 -55 0
-55 0 0 244 0 245 48 4 c97 7 122 7 174 -4z m-2042 -244 l0 -245 -55 0 -55 0
0 245 0 245 55 0 55 0 0 -245z m309 83 c46 -90 84 -164 85 -165 0 -1 0 73 -2
163 l-3 164 51 0 50 0 0 -245 0 -245 -58 0 -59 0 -61 113 c-33 61 -75 141 -92
177 l-31 65 3 -178 3 -177 -52 0 -53 0 0 245 0 245 68 0 68 0 83 -162z m571
117 l0 -45 -95 0 -95 0 0 -50 0 -50 90 0 90 0 0 -45 c0 -29 -4 -45 -12 -46 -7
0 -47 -2 -88 -2 l-75 -2 -3 -57 -3 -58 101 0 100 0 0 -45 0 -45 -155 0 -155 0
0 245 0 245 150 0 150 0 0 -45z m570 -122 c0 -149 2 -172 20 -200 23 -39 63
-52 99 -32 45 25 51 51 51 232 l0 167 55 0 55 0 0 -169 c0 -173 -6 -212 -43
-265 -56 -81 -225 -89 -294 -15 -43 47 -53 99 -53 280 l0 169 55 0 55 0 0
-167z m2418 120 c5 -18 -28 -29 -38 -12 -5 7 -6 17 -3 22 7 12 35 5 41 -10z
m310 0 c-2 -10 -10 -18 -18 -18 -8 0 -16 8 -18 18 -2 12 3 17 18 17 15 0 20
-5 18 -17z m317 -3 c0 -8 -8 -16 -17 -18 -13 -2 -18 3 -18 18 0 15 5 20 18 18
9 -2 17 -10 17 -18z m313 3 c-2 -10 -10 -18 -18 -18 -8 0 -16 8 -18 18 -2 12
3 17 18 17 15 0 20 -5 18 -17z m320 0 c5 -18 -28 -29 -38 -12 -5 7 -6 17 -3
22 7 12 35 5 41 -10z m2032 -486 c0 -9 -11 -12 -36 -9 -35 4 -35 4 -32 -29 3
-30 6 -34 31 -32 15 1 27 -2 27 -8 0 -5 -14 -9 -31 -9 -28 0 -30 -2 -27 -32 3
-37 20 -43 56 -21 12 7 22 9 22 4 0 -18 -29 -32 -64 -29 l-36 2 0 82 c0 47 4
84 10 86 31 10 80 7 80 -5z m110 -3 c0 -14 -3 -14 -16 -4 -12 11 -18 10 -32
-3 -15 -16 -14 -19 21 -55 38 -39 46 -69 25 -90 -23 -23 -78 -8 -78 22 0 5 9
1 21 -10 15 -13 24 -16 36 -8 28 18 26 31 -11 65 -37 33 -46 65 -24 87 18 18
58 15 58 -4z m181 -117 c-21 -54 -97 -61 -119 -12 -15 32 -16 135 -2 135 6 0
10 -27 10 -62 0 -87 36 -123 82 -81 14 12 18 31 18 78 0 34 3 65 8 69 11 12
14 -97 3 -127z m147 111 c16 -14 15 -43 -3 -62 -20 -19 -20 -20 16 -61 17 -19
29 -35 26 -35 -19 0 -41 17 -62 48 -24 35 -24 36 -4 50 30 21 21 56 -15 60
l-28 4 3 -80 c3 -58 1 -79 -8 -79 -9 0 -13 24 -13 83 0 70 3 83 18 87 20 5 52
-2 70 -15z m-5428 4 c0 -4 -20 -24 -44 -45 -36 -30 -53 -37 -86 -37 l-41 0 32
45 c31 44 34 45 86 45 29 0 53 -4 53 -8z m4642 -62 c-2 -44 1 -76 8 -85 9 -11
8 -14 -7 -13 -16 2 -18 12 -18 85 0 49 4 83 10 83 6 0 9 -28 7 -70z m130 8
l57 -63 1 63 c0 34 4 62 10 62 6 0 10 -36 10 -87 l-1 -88 -64 70 -64 70 -1
-67 c0 -39 -4 -68 -10 -68 -6 0 -10 35 -10 85 0 47 3 85 7 85 4 0 33 -28 65
-62z m-3077 -38 c0 -8 -8 -16 -17 -18 -13 -2 -18 3 -18 18 0 15 5 20 18 18 9
-2 17 -10 17 -18z m1261 9 c9 -15 -11 -33 -30 -26 -9 4 -13 13 -10 22 7 17 30
20 40 4z m-4558 -34 c88 -38 122 -100 122 -230 0 -130 -34 -192 -122 -230
-108 -44 -238 15 -268 123 -13 48 -13 166 0 214 30 108 160 167 268 123z m860
-17 c62 -41 82 -94 82 -213 0 -119 -20 -172 -82 -213 -83 -55 -214 -36 -271
40 -63 82 -63 263 0 347 57 75 188 94 271 39z m419 12 c45 -20 83 -69 83 -107
0 -21 -5 -23 -49 -23 -44 0 -51 3 -63 27 -25 51 -118 52 -134 1 -9 -30 19 -53
100 -82 40 -15 88 -39 106 -55 29 -23 34 -35 38 -83 4 -47 1 -62 -17 -87 -30
-41 -96 -65 -169 -59 -98 7 -164 54 -178 126 l-6 32 56 0 c48 0 56 -3 56 -18
0 -42 71 -73 123 -53 21 8 27 17 27 39 0 38 -20 53 -107 86 -123 46 -166 110
-128 190 37 77 167 110 262 66z m-1715 -2 c107 -32 142 -175 61 -250 -37 -33
-83 -48 -154 -48 l-59 0 0 -80 0 -80 -55 0 -55 0 0 235 0 235 111 0 c62 0 129
-5 151 -12z m948 -28 l0 -40 -60 0 -60 0 0 -195 0 -195 -55 0 -55 0 -2 193 -3
192 -62 3 -63 3 0 39 0 40 180 0 180 0 0 -40z m1030 -195 l0 -235 -55 0 -55 0
0 235 0 235 55 0 55 0 0 -235z m2208 179 c4 -3 -53 -34 -63 -34 -7 0 -6 35 1
43 6 6 53 -1 62 -9z m-1193 -61 c5 -23 16 -48 23 -55 14 -14 16 -38 3 -38 -13
0 -71 -50 -71 -61 0 -14 39 -31 53 -22 24 15 67 12 67 -6 0 -14 2 -14 10 -1 5
8 12 11 16 7 4 -4 14 -1 22 6 13 10 15 9 10 -3 -3 -9 0 -24 8 -35 8 -10 14
-27 14 -37 0 -10 5 -18 10 -18 20 0 9 -34 -32 -101 -45 -73 -69 -89 -130 -85
-52 3 -55 11 -8 26 22 7 45 20 52 27 10 12 3 13 -39 7 -33 -4 -53 -2 -57 5 -4
6 -2 11 4 11 6 0 9 4 5 9 -7 12 27 23 82 27 44 3 103 36 103 58 0 8 -12 11
-34 8 -19 -2 -47 3 -65 12 -38 20 -39 15 -4 -20 l28 -28 -50 -13 c-70 -18 -85
-16 -49 6 42 26 56 47 23 36 -13 -4 -41 -9 -62 -12 -20 -3 -40 -9 -43 -14 -7
-12 -41 -12 -48 0 -3 5 -8 24 -11 43 -5 33 -4 35 31 46 21 6 41 9 46 6 4 -3 8
6 8 21 0 28 -38 50 -76 42 -18 -3 -23 2 -27 28 -8 47 3 113 21 127 20 17 90
36 127 34 26 -1 30 -6 40 -43z m1805 -17 c0 -7 -6 -19 -14 -25 -10 -9 -17 -7
-27 5 -12 15 -11 16 9 10 17 -6 21 -4 16 8 -3 9 -1 16 5 16 6 0 11 -6 11 -14z
m915 -33 c0 -29 -11 -43 -32 -43 -12 0 -5 18 20 58 11 17 13 16 12 -15z m-90
-3 c-3 -5 -3 -26 1 -45 5 -28 10 -35 23 -29 9 3 31 10 49 14 19 5 41 18 49 29
8 12 23 21 34 21 19 0 23 -12 20 -55 -1 -11 3 -42 8 -70 11 -60 2 -77 -40 -68
-17 3 -29 1 -29 -5 0 -5 -9 -12 -20 -15 -11 -3 -20 -1 -20 4 0 5 -4 9 -9 9
-15 0 -21 -29 -11 -55 l9 -24 45 16 c29 11 41 20 33 25 -6 4 -9 8 -5 8 3 0 14
3 24 7 14 5 16 3 10 -12 -4 -11 -4 -16 0 -12 10 9 34 -12 34 -30 0 -8 -16 -21
-36 -29 -29 -12 -34 -18 -24 -29 16 -19 -10 -31 -37 -17 -10 6 -29 12 -43 13
-51 8 -68 45 -90 189 -9 61 -3 138 13 158 11 14 21 16 12 2z m-2580 -69 c-6
-5 -21 -12 -35 -16 -24 -7 -24 -7 -5 9 21 16 56 23 40 7z m-195 -55 c0 -2 -9
-6 -20 -9 -11 -3 -20 -1 -20 4 0 5 9 9 20 9 11 0 20 -2 20 -4z m3087 -29 c-20
-122 -51 -191 -87 -195 -23 -3 -24 -3 -7 10 16 12 23 29 26 61 1 5 5 6 10 3 5
-3 12 1 15 10 12 32 6 55 -18 63 -20 8 -35 36 -36 66 0 6 23 11 51 12 l51 2
-5 -32z m-337 -99 c0 -22 -35 -24 -44 -3 -3 9 0 15 9 15 8 0 15 8 15 18 0 14
2 15 10 2 5 -8 10 -23 10 -32z m-732 -103 c-1 -14 -6 -25 -11 -25 -5 0 -6 7
-3 16 3 9 6 20 6 25 0 5 2 9 5 9 3 0 4 -11 3 -25z m-1129 -51 c-9 -11 -15 -12
-25 -3 -11 9 -12 15 -3 25 9 11 15 12 25 3 11 -9 12 -15 3 -25z m1250 0 c-9
-11 -15 -12 -25 -3 -11 9 -12 15 -3 25 9 11 15 12 25 3 11 -9 12 -15 3 -25z
m-1639 11 c0 -8 -9 -15 -19 -15 -24 0 -36 16 -19 23 24 10 38 7 38 -8z m2337
-29 c14 -23 57 -44 105 -51 48 -7 85 -35 73 -55 -4 -6 -1 -11 6 -9 42 5 50 -4
14 -16 -34 -11 -36 -13 -14 -14 15 -1 45 5 67 13 48 17 58 11 36 -22 -16 -24
-16 -25 9 -18 14 3 32 9 40 12 11 4 21 -4 31 -24 9 -17 20 -32 26 -34 5 -1 16
-26 23 -54 11 -43 11 -70 0 -165 -8 -62 -19 -119 -25 -126 -15 -18 0 -17 115
11 l97 23 0 -123 c0 -68 -4 -124 -8 -124 -12 0 -37 -103 -26 -107 11 -4 6
-163 -5 -163 -5 0 -11 -18 -15 -40 -3 -22 -11 -40 -17 -40 -6 0 -8 7 -5 16 5
14 4 15 -9 4 -13 -11 -15 -1 -15 83 0 53 -4 99 -10 102 -6 4 -10 -19 -10 -62
0 -38 -4 -73 -9 -78 -5 -6 -14 -46 -20 -90 -6 -43 -16 -82 -23 -86 -6 -4 -2
-9 11 -14 14 -4 31 -1 46 9 31 21 45 20 73 -4 l23 -19 -76 -76 c-42 -41 -78
-75 -81 -75 -2 0 11 23 31 51 41 60 36 88 -7 38 -56 -65 -63 -80 -47 -90 11
-7 11 -9 -4 -9 -10 0 -20 -7 -23 -15 -4 -8 -16 -15 -28 -15 -34 0 -96 -20 -96
-31 0 -6 12 -9 28 -8 53 4 72 -1 73 -18 1 -17 2 -17 6 -1 5 21 2 21 40 8 37
-13 39 -38 4 -47 -14 -3 -46 -16 -71 -28 -34 -17 -77 -26 -171 -34 -69 -6
-132 -9 -140 -6 -10 4 -14 24 -14 73 0 104 -11 238 -21 253 -13 19 -36 171
-38 249 -4 104 -16 237 -31 345 -27 186 -36 346 -21 376 12 25 12 28 -7 33
-13 3 -25 -1 -33 -12 -8 -9 -14 -12 -14 -6 0 20 29 36 57 32 30 -4 29 -6 24
73 -1 19 -2 19 -17 5 -19 -19 -34 -21 -34 -3 0 8 -4 7 -10 -3 -9 -13 -11 -13
-20 0 -9 13 -14 11 -36 -14 -23 -26 -26 -27 -42 -13 -14 13 -20 13 -35 2 -11
-8 -25 -11 -33 -8 -21 8 8 45 57 73 39 21 43 22 54 6 11 -15 14 -13 25 14 11
27 26 38 97 74 19 9 23 19 23 59 0 44 1 47 20 37 10 -6 23 -16 27 -24z m-842
-6 c3 -6 -1 -7 -9 -4 -18 7 -21 14 -7 14 6 0 13 -4 16 -10z m745 -60 c0 -5 -5
-10 -11 -10 -5 0 -7 5 -4 10 3 6 8 10 11 10 2 0 4 -4 4 -10z m-4 -176 c-30
-21 -45 -16 -16 6 14 10 27 16 30 13 3 -2 -4 -11 -14 -19z m-109 -36 c-3 -8
-6 -5 -6 6 -1 11 2 17 5 13 3 -3 4 -12 1 -19z m882 -5 c0 -25 -1 -26 -9 -8
-12 27 -12 35 0 35 6 0 10 -12 9 -27z m-868 -85 c5 -58 0 -100 -12 -93 -5 4
-9 16 -10 28 -1 20 -2 20 -9 -3 -7 -23 -8 -24 -9 -3 -1 12 7 27 17 32 9 6 12
11 6 11 -11 0 -16 47 -7 63 11 18 21 3 24 -35z m-51 -28 c0 -37 -4 -60 -11
-60 -7 0 -10 12 -7 29 3 22 0 31 -14 34 -10 3 -18 14 -18 26 0 14 5 19 15 15
8 -4 15 -1 15 5 0 6 5 11 10 11 6 0 10 -27 10 -60z m-2883 19 c5 -17 11 -20
38 -15 38 7 68 -2 62 -18 -3 -7 5 -113 18 -236 12 -124 22 -225 21 -226 0 -1
-16 -4 -33 -7 -28 -6 -33 -4 -33 12 0 13 -11 23 -34 31 -19 6 -40 18 -46 26
-7 7 -23 14 -35 14 -17 0 -24 -7 -29 -31 -3 -17 -10 -28 -16 -24 -13 8 -13
-16 0 -49 l10 -26 -1380 0 -1380 0 0 145 0 145 1402 -2 1401 -3 13 -40 c19
-61 16 -31 -11 146 -21 130 -23 164 -13 170 22 15 40 10 45 -12z m3003 -70 c0
-39 -4 -69 -10 -69 -5 0 -10 5 -10 11 0 5 -4 8 -10 4 -13 -8 -9 118 4 127 20
13 26 -4 26 -73z m-1632 11 c-22 -30 -35 -41 -22 -17 9 16 36 47 41 47 2 0 -6
-13 -19 -30z m112 -67 c-7 -23 -8 -18 -8 27 0 45 1 50 8 28 5 -16 5 -40 0 -55z
m2170 13 c0 -3 -4 -8 -10 -11 -5 -3 -10 -1 -10 4 0 6 5 11 10 11 6 0 10 -2 10
-4z m287 -74 c1 -29 -2 -52 -7 -52 -6 0 -10 8 -10 18 0 9 -3 34 -7 56 -5 31
-3 38 8 34 9 -3 15 -22 16 -56z m-2470 -112 c-4 -24 -15 -51 -24 -60 -16 -14
-16 -14 -3 4 9 11 15 47 16 95 3 102 6 116 13 56 3 -27 3 -70 -2 -95z m-42 90
c3 -5 1 -10 -4 -10 -6 0 -11 5 -11 10 0 6 2 10 4 10 3 0 8 -4 11 -10z m1492
-62 c-3 -7 -5 -2 -5 12 0 14 2 19 5 13 2 -7 2 -19 0 -25z m0 -60 c-3 -7 -5 -2
-5 12 0 14 2 19 5 13 2 -7 2 -19 0 -25z m-1614 -18 c3 -11 1 -18 -4 -14 -5 3
-9 12 -9 20 0 20 7 17 13 -6z m1230 -67 c-3 -26 -12 -61 -20 -77 -12 -26 -13
-27 -9 -6 4 14 9 43 12 65 7 48 12 65 18 65 3 0 2 -21 -1 -47z m-2545 -68 c57
-48 133 -61 152 -25 14 25 30 26 30 1 0 -10 -12 -26 -26 -36 -22 -14 -39 -16
-100 -10 -55 5 -74 10 -74 21 0 8 -7 28 -15 44 -19 36 -6 38 33 5z m227 -40
c-31 -26 -45 -31 -45 -17 0 9 51 42 65 41 6 0 -3 -11 -20 -24z m2702 3 c-3 -8
-6 -5 -6 6 -1 11 2 17 5 13 3 -3 4 -12 1 -19z m-2919 -77 c3 -8 -1 -12 -9 -9
-7 2 -15 10 -17 17 -3 8 1 12 9 9 7 -2 15 -10 17 -17z m2919 13 c-3 -3 -12 -4
-19 -1 -8 3 -5 6 6 6 11 1 17 -2 13 -5z m973 -18 c0 -18 -6 -21 -45 -30 l-30
-6 30 25 c34 29 45 31 45 11z m-20 -56 c0 -15 -27 -23 -47 -15 -17 7 -16 8 2
15 28 12 45 12 45 0z m-6440 -85 c86 -44 78 -171 -20 -304 l-32 -43 -30 28
c-37 36 -83 125 -92 180 -18 106 83 186 174 139z m1530 -80 l0 -75 -68 0 c-38
0 -73 5 -80 12 -16 16 3 48 28 48 11 0 20 4 20 9 0 4 -11 6 -25 3 -18 -3 -25
0 -25 11 0 27 65 38 88 15 9 -9 12 -5 12 20 0 27 4 32 25 32 24 0 25 -2 25
-75z m-1209 55 c10 -6 19 -17 19 -25 0 -18 -37 -20 -42 -3 -8 24 -38 -1 -38
-32 0 -31 30 -56 38 -32 5 16 42 15 42 -1 0 -22 -23 -37 -56 -37 -43 0 -64 23
-64 70 0 22 7 45 16 54 18 18 56 21 85 6z m349 -30 c0 -22 5 -40 10 -40 6 0
10 -7 10 -15 0 -8 -4 -15 -10 -15 -5 0 -10 -7 -10 -15 0 -8 -9 -15 -20 -15
-11 0 -20 7 -20 15 0 9 -9 15 -25 15 -32 0 -32 19 0 70 16 25 33 40 45 40 17
0 20 -7 20 -40z m190 25 c0 -10 -11 -15 -35 -15 -19 0 -35 -4 -35 -10 0 -5 14
-10 30 -10 20 0 30 -5 30 -15 0 -10 -10 -15 -30 -15 -27 0 -30 -3 -30 -30 0
-23 -4 -30 -20 -30 -18 0 -20 7 -20 70 l0 70 55 0 c42 0 55 -3 55 -15z m340 1
c0 -8 6 -17 13 -20 10 -5 10 -7 0 -12 -15 -7 -18 -64 -3 -64 6 0 10 -7 10 -16
0 -11 -8 -14 -27 -12 -23 2 -29 10 -39 48 l-12 45 -1 -47 c-1 -41 -4 -48 -21
-48 -17 0 -20 7 -20 40 0 22 -4 40 -10 40 -5 0 -10 -18 -10 -40 0 -33 -3 -40
-20 -40 -13 0 -20 7 -20 20 0 16 -6 20 -32 19 -32 -2 -32 -2 -5 -6 41 -6 27
-28 -19 -28 -33 0 -40 4 -48 27 -22 61 39 104 86 61 17 -15 18 -15 18 1 0 14
9 17 48 16 68 -2 72 -2 72 15 0 8 9 15 20 15 11 0 20 -6 20 -14z m-780 -28 c0
-9 3 -9 12 0 15 15 61 15 76 0 7 -7 12 -32 12 -56 l0 -43 -47 3 c-44 3 -48 5
-48 28 0 20 6 26 28 28 43 5 31 18 -15 17 -42 -1 -43 -2 -46 -38 -3 -29 -7
-37 -23 -37 -16 0 -19 7 -19 55 l0 55 35 0 c21 0 35 -5 35 -12z m510 -2 c0 -8
-7 -16 -15 -20 -9 -3 -15 -19 -15 -41 0 -28 -4 -35 -20 -35 -18 0 -20 7 -20
55 l0 55 35 0 c23 0 35 -5 35 -14z m378 2 c5 -7 13 -23 16 -35 7 -21 4 -23
-26 -24 -31 -2 -31 -2 -5 -6 41 -6 27 -28 -19 -28 -33 0 -40 4 -48 27 -14 41
6 78 43 78 16 0 33 -6 39 -12z m380 -4 c8 -14 10 -14 21 0 16 19 64 21 79 3 6
-7 12 -30 15 -52 3 -36 4 -35 5 13 l2 52 35 0 c21 0 35 -5 35 -12 0 -9 3 -9
12 0 7 7 40 12 80 12 l68 0 2 -42 1 -43 4 43 c4 37 7 42 29 42 18 0 24 -5 24
-22 l0 -22 16 22 c17 24 62 30 82 10 7 -7 12 -22 12 -35 0 -19 -6 -23 -32 -24
l-33 -1 30 -7 c40 -8 34 -25 -9 -29 -26 -2 -38 2 -50 20 l-16 22 0 -22 c0 -19
-5 -22 -45 -22 -31 0 -47 5 -54 18 -8 14 -10 10 -11 -20 0 -34 -3 -38 -25 -38
-18 0 -25 5 -25 20 0 13 -7 20 -18 20 -26 0 -42 20 -42 53 0 42 -24 28 -28
-16 l-3 -37 -70 0 c-55 0 -71 3 -76 16 -5 15 -7 15 -15 0 -5 -9 -20 -16 -33
-16 -18 0 -25 -5 -25 -20 0 -13 -7 -20 -20 -20 -18 0 -20 7 -20 75 l0 75 45 0
c29 0 47 -5 53 -16z m1182 -200 c0 -2 -7 -4 -15 -4 -8 0 -15 4 -15 10 0 5 7 7
15 4 8 -4 15 -8 15 -10z m-1850 -9 c-7 -8 -21 -15 -32 -15 -17 0 -18 3 -8 15
7 8 21 15 32 15 17 0 18 -3 8 -15z m540 0 c-7 -8 -21 -15 -32 -15 -17 0 -18 3
-8 15 7 8 21 15 32 15 17 0 18 -3 8 -15z m-810 -5 c0 -5 -9 -10 -20 -10 -11 0
-20 5 -20 10 0 6 9 10 20 10 11 0 20 -4 20 -10z m750 -65 c0 -73 -1 -75 -25
-75 -19 0 -25 5 -25 22 l0 22 -16 -22 c-18 -26 -59 -29 -84 -7 -15 14 -18 14
-30 0 -8 -9 -29 -15 -59 -15 l-46 0 3 70 4 70 43 0 c46 0 71 -19 61 -46 -10
-26 5 -37 18 -12 16 33 69 37 90 6 16 -22 16 -22 16 20 0 38 2 42 25 42 24 0
25 -2 25 -75z m-806 43 c15 -24 0 -34 -29 -18 -14 7 -28 10 -32 7 -3 -4 -4 -8
-2 -9 2 -2 17 -10 34 -18 53 -27 41 -80 -18 -80 -29 0 -67 24 -67 42 0 11 38
10 45 -2 7 -12 35 -13 35 -2 0 5 -16 16 -35 25 -36 17 -45 43 -23 65 18 18 79
11 92 -10z m56 -63 c0 -48 -2 -55 -20 -55 -18 0 -20 7 -20 55 0 48 2 55 20 55
18 0 20 -7 20 -55z m171 33 c11 -20 11 -20 25 1 17 23 63 28 82 9 7 -7 12 -26
12 -43 0 -17 -5 -36 -12 -43 -20 -20 -65 -14 -82 10 l-16 22 0 -22 c0 -15 -6
-22 -20 -22 -16 0 -20 7 -20 34 0 19 -4 38 -10 41 -6 4 -10 -10 -10 -34 0 -34
-3 -41 -20 -41 -16 0 -20 7 -20 34 0 19 -4 38 -10 41 -6 4 -10 -10 -10 -34 0
-34 -3 -41 -20 -41 -18 0 -20 7 -20 55 l0 55 70 -2 c59 -1 73 -4 81 -20z m227
-35 c3 -48 1 -53 -17 -53 -18 0 -21 6 -21 40 0 22 -4 40 -10 40 -5 0 -10 -18
-10 -40 0 -33 -3 -40 -20 -40 -18 0 -20 7 -20 56 l0 55 48 -3 47 -3 3 -52z
m460 35 l11 -23 0 23 c1 16 7 22 25 22 l25 0 -18 -52 c-15 -44 -22 -53 -42
-53 -19 0 -26 8 -39 50 l-15 50 -3 -52 c-3 -45 -6 -53 -23 -53 -16 0 -19 7
-19 55 l0 55 43 0 c36 0 46 -4 55 -22z m151 5 c10 -17 10 -17 11 0 0 13 9 17
40 17 29 0 40 -4 40 -15 0 -8 -7 -15 -15 -15 -11 0 -15 -11 -15 -40 l0 -40
-74 0 c-59 0 -75 3 -80 16 -8 21 11 44 35 44 11 0 19 4 19 9 0 4 -11 6 -25 3
-24 -4 -35 14 -18 31 14 14 72 7 82 -10z m3521 -198 c-7 -8 -17 -15 -23 -15
-6 0 -2 7 9 15 25 19 30 19 14 0z m-40 -29 c0 -3 -4 -8 -10 -11 -5 -3 -10 -1
-10 4 0 6 5 11 10 11 6 0 10 -2 10 -4z"/>
<path d="M8760 3120 l0 -90 -95 0 c-57 0 -95 -4 -95 -10 0 -6 40 -10 100 -10
l100 0 0 100 c0 55 -2 100 -5 100 -3 0 -5 -40 -5 -90z"/>
<path d="M8810 3110 l0 -100 100 0 100 0 0 100 0 100 -100 0 -100 0 0 -100z
m172 61 c11 -1 14 -34 7 -68 -4 -20 -3 -33 3 -33 7 0 7 -4 0 -13 -11 -13 -136
-17 -149 -4 -10 10 -12 100 -2 113 6 8 84 11 141 5z"/>
<path d="M8946 3151 c-14 -15 -15 -21 -4 -27 7 -4 10 -3 5 1 -4 5 0 17 10 27
9 10 14 18 11 18 -3 0 -13 -9 -22 -19z"/>
<path d="M8887 3139 c16 -18 19 -28 12 -41 -6 -10 -15 -18 -20 -18 -6 0 -7 4
-4 10 4 6 -1 7 -11 3 -12 -4 -14 -8 -6 -11 10 -3 10 -7 0 -20 -11 -13 -10 -14
7 -5 11 6 30 22 41 35 l22 23 -32 24 -31 25 22 -25z"/>
<path d="M8945 3070 c10 -11 20 -20 23 -20 3 0 -3 9 -13 20 -10 11 -20 20 -23
20 -3 0 3 -9 13 -20z"/>
<path d="M8676 3124 c2 -89 14 -95 14 -6 0 40 -3 72 -7 72 -5 0 -7 -30 -7 -66z"/>
<path d="M8574 2945 c-8 -20 12 -97 36 -144 22 -43 83 -103 128 -125 l32 -17
0 151 0 150 -95 0 c-76 0 -97 -3 -101 -15z m156 -45 c0 -5 -11 -10 -25 -10
-20 0 -25 -5 -25 -25 0 -18 5 -25 20 -25 11 0 20 -4 20 -9 0 -5 -9 -7 -20 -4
-17 5 -20 0 -20 -26 0 -34 24 -43 49 -18 11 10 13 9 9 -3 -3 -9 -19 -16 -41
-18 l-37 -3 0 70 0 70 33 4 c17 2 33 5 35 5 1 1 2 -2 2 -8z"/>
<path d="M8812 2808 l2 -153 3 143 4 142 94 0 c57 0 95 4 95 10 0 6 -40 10
-100 10 l-100 0 2 -152z"/>
<path d="M8863 2884 c-3 -9 5 -27 22 -44 19 -20 26 -35 22 -50 -4 -17 -3 -19
9 -9 20 16 18 24 -17 60 -17 17 -28 37 -25 45 3 8 3 14 0 14 -2 0 -7 -7 -11
-16z"/>
<path d="M8860 2780 c0 -5 5 -10 11 -10 5 0 7 5 4 10 -3 6 -8 10 -11 10 -2 0
-4 -4 -4 -10z"/>
<path d="M3520 2919 l0 -72 41 6 c53 7 79 31 79 73 0 41 -30 64 -82 64 l-38 0
0 -71z"/>
<path d="M2044 2336 c-40 -18 -54 -57 -54 -153 0 -123 44 -178 120 -151 45 15
60 53 60 153 0 101 -15 138 -61 154 -18 6 -32 11 -33 11 -1 -1 -15 -7 -32 -14z"/>
<path d="M2873 2340 c-33 -14 -54 -52 -60 -113 -13 -124 22 -201 91 -201 24 0
44 7 59 22 20 21 22 32 22 137 0 101 -2 117 -20 134 -25 24 -63 33 -92 21z"/>
<path d="M1570 2265 l0 -77 57 4 c62 5 93 30 93 73 0 43 -31 68 -93 73 l-57 4
0 -77z"/>
<path d="M4748 2113 c7 -3 16 -2 19 1 4 3 -2 6 -13 5 -11 0 -14 -3 -6 -6z"/>
<path d="M7393 2163 c-37 -7 -26 -24 12 -20 36 4 49 -8 18 -16 -14 -4 -14 -5
3 -6 14 -1 24 6 27 18 8 31 -3 35 -60 24z"/>
<path d="M7744 929 c-3 -6 -1 -16 5 -22 8 -8 11 -5 11 11 0 24 -5 28 -16 11z"/>
<path d="M7597 893 c-4 -3 -7 -13 -7 -22 1 -14 2 -13 11 2 14 23 28 22 22 -3
-3 -11 -2 -41 2 -66 6 -42 8 -45 31 -40 l24 6 0 -85 c0 -55 -4 -84 -10 -80 -5
3 -10 16 -10 28 0 13 -4 17 -9 12 -9 -9 4 -173 13 -183 15 -15 24 59 28 224
l4 192 -31 11 c-36 13 -59 14 -68 4z"/>
<path d="M7873 815 c0 -27 2 -38 4 -22 2 15 2 37 0 50 -2 12 -4 0 -4 -28z"/>
<path d="M7781 598 c0 -9 -11 -24 -23 -32 -12 -9 -20 -18 -17 -20 11 -11 51
32 46 50 -4 15 -5 16 -6 2z"/>
<path d="M7955 560 c3 -5 8 -10 11 -10 2 0 4 5 4 10 0 6 -5 10 -11 10 -5 0 -7
-4 -4 -10z"/>
<path d="M7780 498 c-30 -17 -56 -34 -58 -39 -2 -5 -12 -9 -23 -9 -10 0 -19
-7 -19 -15 0 -8 8 -15 17 -15 22 0 14 -6 -19 -14 -20 -5 -28 -2 -31 11 -4 14
-5 13 -6 -4 0 -12 7 -26 17 -31 30 -16 78 13 114 68 18 27 35 50 38 50 4 0 15
7 26 15 31 24 3 15 -56 -17z"/>
<path d="M4293 1365 c0 -22 2 -30 4 -17 2 12 2 30 0 40 -3 9 -5 -1 -4 -23z"/>
<path d="M4301 1269 c1 -19 5 -47 10 -64 5 -20 6 -9 2 30 -6 66 -14 88 -12 34z"/>
<path d="M2650 1108 c0 -24 -4 -28 -30 -28 -38 0 -64 -36 -54 -75 8 -33 47
-53 68 -36 10 8 16 9 21 1 17 -27 25 -2 25 78 0 72 -3 89 -15 89 -10 0 -15
-10 -15 -29z m-2 -92 c-2 -13 -10 -21 -23 -21 -23 0 -32 30 -14 51 16 19 41
-1 37 -30z"/>
<path d="M1737 1123 c-13 -12 -7 -23 13 -23 11 0 20 7 20 15 0 15 -21 21 -33
8z"/>
<path d="M4322 1100 c0 -19 2 -27 5 -17 2 9 2 25 0 35 -3 9 -5 1 -5 -18z"/>
<path d="M1610 1103 c-59 -22 -81 -102 -40 -143 21 -21 90 -29 90 -10 0 6 -15
10 -34 10 -40 0 -59 20 -59 62 0 57 71 89 107 49 20 -22 18 -62 -3 -69 -10 -3
-12 3 -9 27 5 37 -3 45 -37 37 -29 -7 -48 -39 -40 -65 9 -28 92 -25 111 5 16
23 11 66 -10 83 -16 13 -58 21 -76 14z m28 -75 c-4 -27 -28 -36 -28 -10 0 20
8 32 22 32 5 0 8 -10 6 -22z"/>
<path d="M2078 1071 c-25 -21 -19 -50 12 -58 28 -7 25 -23 -5 -23 -30 0 -33
-16 -5 -25 41 -13 77 15 64 50 -3 8 -14 17 -25 20 -25 8 -24 25 1 25 26 0 26
16 0 23 -11 3 -30 -3 -42 -12z"/>
<path d="M3042 1077 c-46 -21 -37 -100 13 -113 39 -10 75 19 75 60 0 48 -42
73 -88 53z m43 -53 c0 -19 -5 -29 -15 -29 -16 0 -25 28 -16 51 10 25 31 10 31
-22z"/>
<path d="M4260 1080 c0 -5 5 -10 10 -10 6 0 10 5 10 10 0 6 -4 10 -10 10 -5 0
-10 -4 -10 -10z"/>
<path d="M1732 1023 c2 -46 7 -59 21 -61 15 -3 17 5 17 57 0 55 -2 61 -20 61
-19 0 -21 -5 -18 -57z"/>
<path d="M1802 1022 c4 -68 25 -83 30 -20 2 31 8 44 20 46 13 3 17 -6 20 -40
2 -30 7 -43 18 -43 17 0 25 52 16 91 -6 21 -12 24 -57 22 l-50 -1 3 -55z"/>
<path d="M1944 1055 c-33 -50 11 -106 71 -91 31 8 24 26 -10 26 -13 0 -27 5
-30 10 -4 6 8 10 29 10 31 0 36 3 36 23 0 51 -67 66 -96 22z m61 -5 c3 -5 -3
-10 -14 -10 -12 0 -21 5 -21 10 0 6 6 10 14 10 8 0 18 -4 21 -10z"/>
<path d="M2170 1032 c0 -60 18 -81 55 -64 15 7 25 8 25 2 0 -6 7 -10 15 -10
12 0 15 13 15 60 0 53 -2 60 -20 60 -17 0 -20 -7 -20 -39 0 -67 -34 -69 -35
-3 -1 26 -6 38 -18 40 -14 3 -17 -5 -17 -46z"/>
<path d="M2310 1021 c0 -45 3 -58 15 -58 10 0 15 10 15 28 0 38 9 59 26 59 8
0 14 6 14 14 0 9 -12 14 -35 14 l-35 0 0 -57z"/>
<path d="M2450 1061 c-28 -53 10 -111 65 -97 34 9 32 26 -4 26 -17 0 -33 5
-36 10 -4 6 10 10 34 10 44 0 51 12 31 51 -7 13 -21 19 -45 19 -24 0 -38 -6
-45 -19z m60 -11 c0 -5 -9 -10 -21 -10 -11 0 -17 5 -14 10 3 6 13 10 21 10 8
0 14 -4 14 -10z"/>
<path d="M2710 1036 c0 -60 36 -96 67 -65 8 8 13 8 17 0 16 -26 26 -7 26 49 0
53 -2 60 -20 60 -17 0 -20 -7 -20 -46 0 -59 -24 -55 -28 4 -3 34 -7 42 -23 42
-16 0 -19 -7 -19 -44z"/>
<path d="M2916 1058 c-9 -12 -16 -30 -16 -40 0 -28 38 -60 67 -56 31 4 44 28
15 28 -28 0 -49 27 -35 48 6 10 18 17 28 17 10 0 20 6 23 13 2 8 -8 12 -32 12
-25 0 -39 -6 -50 -22z"/>
<path d="M2383 994 c-8 -21 13 -42 28 -27 13 13 5 43 -11 43 -6 0 -13 -7 -17
-16z"/>
<path d="M2853 994 c-8 -21 13 -42 28 -27 13 13 5 43 -11 43 -6 0 -13 -7 -17
-16z"/>
<path d="M7256 1441 c-4 -7 -5 -15 -2 -18 9 -9 19 4 14 18 -4 11 -6 11 -12 0z"/>
<path d="M1604 695 c-40 -21 -59 -57 -58 -110 1 -47 39 -135 78 -180 l26 -30
30 35 c81 94 103 204 53 260 -34 38 -85 47 -129 25z m98 -62 c22 -20 23 -70 1
-95 -25 -28 -77 -24 -102 9 -49 62 41 140 101 86z"/>
<path d="M1610 625 c-7 -8 -12 -26 -12 -40 0 -34 19 -55 53 -55 52 0 79 59 43
94 -20 20 -68 21 -84 1z"/>
<path d="M2685 620 c-3 -5 -1 -10 4 -10 6 0 11 5 11 10 0 6 -2 10 -4 10 -3 0
-8 -4 -11 -10z"/>
<path d="M2975 620 c-3 -5 -1 -10 4 -10 6 0 11 5 11 10 0 6 -2 10 -4 10 -3 0
-8 -4 -11 -10z"/>
<path d="M3340 605 c0 -14 5 -25 10 -25 6 0 10 11 10 25 0 14 -4 25 -10 25 -5
0 -10 -11 -10 -25z"/>
<path d="M3433 623 c-34 -7 -28 -20 7 -15 17 2 30 8 30 13 0 5 -3 8 -7 8 -5
-1 -18 -4 -30 -6z"/>
<path d="M3637 623 c-11 -10 -8 -43 3 -43 6 0 10 11 10 25 0 26 -2 29 -13 18z"/>
<path d="M3860 620 c0 -5 5 -10 10 -10 6 0 10 5 10 10 0 6 -4 10 -10 10 -5 0
-10 -4 -10 -10z"/>
<path d="M2970 390 c0 -5 4 -10 9 -10 6 0 13 5 16 10 3 6 -1 10 -9 10 -9 0
-16 -4 -16 -10z"/>
<path d="M3090 345 c0 -14 5 -25 10 -25 6 0 10 11 10 25 0 14 -4 25 -10 25 -5
0 -10 -11 -10 -25z"/>
<path d="M2970 341 c0 -12 6 -21 16 -21 9 0 14 7 12 17 -5 25 -28 28 -28 4z"/>
<path d="M2690 345 c0 -14 5 -25 10 -25 6 0 10 11 10 25 0 14 -4 25 -10 25 -5
0 -10 -11 -10 -25z"/>
<path d="M6159 2450 c-33 -17 -59 -37 -62 -50 -3 -11 -1 -20 4 -20 5 0 7 -11
3 -24 -7 -31 4 -55 17 -35 4 8 12 14 16 14 4 1 17 5 28 11 16 9 24 7 37 -7 16
-17 16 -18 0 -22 -9 -2 -3 -3 14 -2 51 4 94 37 87 66 -6 20 -23 26 -83 32
l-35 3 29 12 c16 7 44 13 63 14 40 1 42 11 8 26 -39 18 -64 14 -126 -18z m101
-104 c0 -2 -7 -7 -16 -10 -8 -3 -12 -2 -9 4 6 10 25 14 25 6z"/>
<path d="M5742 2175 c0 -16 2 -22 5 -12 2 9 2 23 0 30 -3 6 -5 -1 -5 -18z"/>
<path d="M6171 2174 c0 -6 -14 -14 -31 -17 -40 -8 -39 -27 1 -22 38 5 42 8 36
32 -3 10 -5 13 -6 7z"/>
<path d="M6124 2115 c-17 -13 -17 -14 -2 -15 9 0 20 5 23 11 11 17 0 20 -21 4z"/>
<path d="M6186 2082 c-27 -2 -58 -9 -69 -17 -11 -7 -25 -11 -32 -9 -7 3 -15
-2 -19 -12 -6 -15 -1 -16 36 -10 24 4 54 10 68 13 22 6 23 5 9 -9 -8 -8 -24
-18 -36 -22 -27 -9 -39 -36 -15 -36 19 1 29 8 87 58 20 19 34 37 29 40 -5 4
-31 6 -58 4z"/>
<path d="M5995 2040 c-2 -3 5 -7 16 -7 10 -1 19 2 19 6 0 9 -29 10 -35 1z"/>
<path d="M6326 1965 c-9 -9 -21 -24 -29 -35 -13 -19 -120 -60 -157 -60 -12 0
-19 -4 -16 -9 7 -11 58 -22 127 -27 50 -4 58 -2 71 19 15 22 35 127 25 127 -3
0 -13 -7 -21 -15z"/>
<path d="M4808 1723 c6 -2 18 -2 25 0 6 3 1 5 -13 5 -14 0 -19 -2 -12 -5z"/>
<path d="M5536 1629 c-30 -23 -34 -41 -8 -33 12 4 10 0 -7 -15 -13 -12 -21
-24 -17 -28 8 -9 47 38 40 49 -3 5 2 18 12 29 22 25 13 24 -20 -2z"/>
<path d="M5078 1526 c-32 -57 -58 -105 -58 -108 0 -2 7 -5 15 -5 8 0 15 5 15
10 0 5 20 53 45 105 25 52 44 96 43 98 -2 1 -29 -44 -60 -100z"/>
<path d="M5592 1600 c-12 -16 -18 -32 -12 -35 9 -5 45 53 38 61 -3 2 -14 -9
-26 -26z"/>
<path d="M5531 1544 c-23 -30 -24 -33 -12 -52 6 -10 15 -4 35 23 25 32 27 55
6 55 -5 0 -18 -12 -29 -26z"/>
<path d="M4937 1478 c-9 -29 -15 -53 -14 -54 1 0 16 -4 34 -7 31 -6 32 -5 47
47 20 69 21 66 -17 66 -31 0 -34 -3 -50 -52z"/>
<path d="M6104 1458 c4 -13 13 -54 21 -93 l13 -70 1 77 c1 57 -3 81 -15 92
-21 22 -28 20 -20 -6z"/>
<path d="M6931 1471 c-7 -5 -9 -11 -4 -14 5 -3 15 -2 22 2 7 5 9 11 4 14 -5 3
-15 2 -22 -2z"/>
<path d="M5222 1390 c-26 -22 -28 -38 -5 -55 14 -11 15 -15 4 -29 -8 -10 -10
-26 -6 -46 6 -26 11 -31 28 -26 12 3 27 6 34 6 14 0 36 63 30 87 -3 13 -7 8
-12 -14 -5 -22 -15 -33 -32 -38 -33 -8 -36 -4 -23 30 7 19 15 25 27 21 13 -5
14 -4 4 8 -9 11 -10 20 -2 35 17 31 -16 45 -47 21z"/>
<path d="M6630 1355 c0 -19 4 -35 8 -35 4 0 6 16 4 35 -2 19 -6 35 -8 35 -2 0
-4 -16 -4 -35z"/>
<path d="M4850 1339 c0 -5 9 -9 20 -9 11 0 20 2 20 4 0 2 -9 6 -20 9 -11 3
-20 1 -20 -4z"/>
<path d="M5026 1333 c-4 -13 -11 -23 -16 -23 -5 0 -17 -14 -25 -31 -11 -20
-21 -29 -31 -25 -8 3 -12 2 -9 -3 8 -15 -15 -25 -28 -12 -6 6 -26 11 -44 11
l-32 0 3 -72 c2 -40 10 -101 16 -136 12 -58 11 -65 -7 -90 -21 -29 -20 -52 3
-52 8 0 14 6 15 13 0 6 5 1 10 -13 6 -14 7 -48 3 -80 -8 -64 -10 -81 -19 -172
-5 -51 -3 -73 10 -97 16 -31 35 -34 35 -5 0 8 4 14 9 14 5 0 8 32 6 70 -2 48
1 70 8 70 8 0 7 4 -2 9 -10 6 -12 21 -7 52 3 24 3 67 -2 94 -4 28 -6 60 -4 72
3 19 7 21 28 13 14 -6 28 -9 32 -9 25 4 40 -5 56 -32 20 -35 16 -67 -16 -111
-23 -34 -17 -49 10 -25 10 10 22 14 26 10 4 -4 4 0 0 10 -11 29 4 19 40 -29
l36 -46 10 26 c5 15 10 31 10 36 0 5 18 64 40 131 23 68 40 132 38 143 -3 22
-111 68 -140 60 -41 -12 -72 47 -35 67 9 6 17 17 17 24 0 20 19 19 68 -5 45
-22 72 -26 72 -10 0 6 -4 10 -10 10 -5 0 -9 3 -9 8 4 24 -3 42 -16 42 -8 0
-15 4 -15 9 0 5 -24 17 -54 25 -46 14 -54 20 -63 48 -9 31 -10 32 -17 11z
m135 -455 c11 -21 11 -22 -4 -9 -10 7 -17 17 -17 22 0 15 9 10 21 -13z"/>
<path d="M4840 1285 c0 -7 11 -10 30 -7 17 2 30 5 30 7 0 2 -13 5 -30 7 -19 3
-30 0 -30 -7z"/>
<path d="M5576 1225 c-9 -26 -7 -32 5 -12 6 10 9 21 6 23 -2 3 -7 -2 -11 -11z"/>
<path d="M5425 1200 c10 -11 20 -20 23 -20 3 0 -3 9 -13 20 -10 11 -20 20 -23
20 -3 0 3 -9 13 -20z"/>
<path d="M5233 1175 c5 -16 37 -18 37 -3 0 8 -9 14 -20 14 -11 0 -19 -5 -17
-11z"/>
<path d="M5535 1176 c-15 -11 -17 -18 -9 -36 9 -21 10 -21 21 14 6 20 10 36 9
36 -1 0 -11 -6 -21 -14z"/>
<path d="M5473 1172 c4 -2 5 -18 2 -36 -5 -23 -2 -36 9 -45 9 -8 16 -10 16 -5
1 5 3 26 6 47 3 21 1 37 -4 37 -6 0 -16 2 -24 3 -7 2 -9 2 -5 -1z"/>
<path d="M5500 1041 c0 -14 -31 -19 -57 -9 -13 4 -23 4 -23 -2 0 -5 8 -11 18
-14 10 -3 39 -31 65 -62 46 -55 47 -56 40 -23 -3 19 -9 35 -12 37 -24 11 -35
24 -23 29 14 6 17 53 2 53 -5 0 -10 -4 -10 -9z"/>
<path d="M5400 930 c25 -22 48 -40 52 -40 4 0 23 -14 43 -31 40 -35 40 -35 49
3 5 21 3 26 -7 22 -20 -7 -60 10 -112 50 -63 48 -81 45 -25 -4z"/>
<path d="M7042 865 c-11 -25 -7 -55 8 -55 10 0 19 70 10 75 -4 3 -12 -7 -18
-20z"/>
<path d="M7076 774 c-9 -23 -7 -84 2 -84 5 0 8 22 8 50 -1 27 -2 50 -2 50 -1
0 -5 -7 -8 -16z"/>
<path d="M4869 514 c-1 -5 -1 -12 -1 -15 1 -3 -7 -5 -16 -5 -59 0 -83 -5 -80
-16 2 -6 17 -16 34 -21 16 -6 31 -13 34 -17 12 -16 51 -30 87 -30 33 1 36 2
18 12 -11 6 -22 14 -25 18 -3 3 -14 10 -25 14 -18 7 -18 9 -3 15 15 5 15 8 -3
30 -10 13 -20 19 -20 15z"/>
<path d="M5452 480 c0 -14 2 -19 5 -12 2 6 2 18 0 25 -3 6 -5 1 -5 -13z"/>
<path d="M7060 441 c0 -5 5 -13 10 -16 6 -3 10 -2 10 4 0 5 -4 13 -10 16 -5 3
-10 2 -10 -4z"/>
<path d="M5443 335 c0 -22 2 -30 4 -17 2 12 2 30 0 40 -3 9 -5 -1 -4 -23z"/>
<path d="M4870 320 c0 -13 11 -13 30 0 12 8 11 10 -7 10 -13 0 -23 -4 -23 -10z"/>
<path d="M6475 49 c-9 -14 -2 -20 14 -10 8 6 9 11 3 15 -6 3 -14 1 -17 -5z"/>
</g>
</svg>
